<svg xmlns="http://www.w3.org/2000/svg" width="22.436" height="26.077" viewBox="0 0 22.436 26.077">
  <g id="address" transform="translate(-0.323 0)">
    <path id="Path_1485" data-name="Path 1485" d="M5.843,21.5a35.361,35.361,0,0,0,5.47,4.511.423.423,0,0,0,.456,0A35.365,35.365,0,0,0,17.24,21.5a23.721,23.721,0,0,0,3.778-4.838,11.983,11.983,0,0,0,1.742-5.918A11,11,0,0,0,11.542,0,11,11,0,0,0,.323,10.743a11.982,11.982,0,0,0,1.742,5.918A23.714,23.714,0,0,0,5.843,21.5ZM11.542.847a10.154,10.154,0,0,1,10.371,9.9,11.149,11.149,0,0,1-1.627,5.491,22.857,22.857,0,0,1-3.636,4.658,35.877,35.877,0,0,1-5.108,4.253,35.875,35.875,0,0,1-5.108-4.253A22.85,22.85,0,0,1,2.8,16.234,11.148,11.148,0,0,1,1.17,10.743,10.154,10.154,0,0,1,11.542.847Zm0,0" fill="#4d4d4d"/>
    <path id="Path_1486" data-name="Path 1486" d="M63.668,68.053a8.3,8.3,0,1,0-8.3-8.3A8.314,8.314,0,0,0,63.668,68.053Zm0-15.762a7.458,7.458,0,1,1-7.458,7.458A7.466,7.466,0,0,1,63.668,52.291Zm0,0" transform="translate(-52.126 -48.721)" fill="#4d4d4d"/>
    <path id="Path_1487" data-name="Path 1487" d="M120.372,124.793h7.617a1.147,1.147,0,0,0,1.114-1.16v-4.865a1.112,1.112,0,0,0-1.114-1.12H126.35v-.163a1.141,1.141,0,0,0-1.106-1.16h-2.127a1.14,1.14,0,0,0-1.106,1.16v.163h-1.639a1.112,1.112,0,0,0-1.114,1.12v4.865a1.147,1.147,0,0,0,1.114,1.16Zm7.617-.847h-7.617a.3.3,0,0,1-.267-.313v-1.289a1.191,1.191,0,0,0,.267.015h7.617a1.191,1.191,0,0,0,.267-.015v1.289A.3.3,0,0,1,127.989,123.946Zm-5.132-6.462a.3.3,0,0,1,.26-.313h2.128a.3.3,0,0,1,.259.313v.163h-2.647Zm-2.752,1.283a.264.264,0,0,1,.267-.273h7.617a.264.264,0,0,1,.267.273v2.467a.267.267,0,0,1-.267.277h-7.617a.267.267,0,0,1-.267-.277Zm0,0" transform="translate(-112.639 -110.167)" fill="#4d4d4d"/>
    <path id="Path_1488" data-name="Path 1488" d="M191.681,177.171h1.376a.423.423,0,0,0,0-.847h-1.376a.423.423,0,1,0,0,.847Zm0,0" transform="translate(-180.828 -166.991)" fill="#4d4d4d"/>
  </g>
</svg>
