<svg xmlns="http://www.w3.org/2000/svg" width="22.308" height="30.164" viewBox="0 0 22.308 30.164">
  <g id="business-report" transform="translate(-66.67)">
    <g id="Group_4" data-name="Group 4" transform="translate(66.67)">
      <path id="Path_2" data-name="Path 2" d="M88.536,0H67.112a.442.442,0,0,0-.442.442V21.43a.442.442,0,0,0,.884,0V.884H88.094V3.661a.442.442,0,1,0,.884,0V.442A.442.442,0,0,0,88.536,0Z" transform="translate(-66.67)" fill="#4d4d4d"/>
      <path id="Path_3" data-name="Path 3" d="M88.536,89.65a.442.442,0,0,0-.442.442v23.557H67.554v-5.788a.442.442,0,0,0-.884,0v6.229a.442.442,0,0,0,.442.442H88.536a.442.442,0,0,0,.442-.442v-24A.442.442,0,0,0,88.536,89.65Z" transform="translate(-66.67 -84.368)" fill="#4d4d4d"/>
      <path id="Path_4" data-name="Path 4" d="M99,101.4a3.417,3.417,0,1,0,3.417-3.417A3.421,3.421,0,0,0,99,101.4Zm3.417,2.534a2.533,2.533,0,0,1-.442-5.028V101.4a.442.442,0,0,0,.442.442h2.494A2.537,2.537,0,0,1,102.413,103.937Zm2.494-2.976h-2.053V98.909A2.54,2.54,0,0,1,104.908,100.962Z" transform="translate(-97.092 -92.213)" fill="#4d4d4d"/>
      <path id="Path_5" data-name="Path 5" d="M103.478,432.35a.442.442,0,0,0-.442.442v1.9a.442.442,0,0,0,.442.442h2.857a.442.442,0,0,0,.442-.442v-1.9a.442.442,0,0,0-.442-.442Zm2.415,1.9H103.92v-1.021h1.973Z" transform="translate(-100.894 -406.879)" fill="#4d4d4d"/>
      <path id="Path_6" data-name="Path 6" d="M184.292,389.507h2.857a.442.442,0,0,0,.442-.442V384.3a.442.442,0,0,0-.442-.442h-2.857a.442.442,0,0,0-.442.442v4.761A.442.442,0,0,0,184.292,389.507Zm.442-4.761h1.973v3.877h-1.973Z" transform="translate(-176.947 -361.247)" fill="#4d4d4d"/>
      <path id="Path_7" data-name="Path 7" d="M265.1,323.252a.442.442,0,0,0-.442.442v8.332a.442.442,0,0,0,.442.442h2.857a.442.442,0,0,0,.442-.442v-8.332a.442.442,0,0,0-.442-.442Zm2.415,8.332h-1.973v-7.448h1.973Z" transform="translate(-252.999 -304.208)" fill="#4d4d4d"/>
      <path id="Path_8" data-name="Path 8" d="M348.778,285.292a.442.442,0,0,0,.442-.442v-1.558a.442.442,0,0,0-.442-.442h-2.856a.442.442,0,0,0-.442.442V294a.442.442,0,0,0,.442.442h2.856a.442.442,0,0,0,.442-.442v-7.091a.442.442,0,1,0-.884,0v6.65h-1.972v-9.828h1.972v1.116A.442.442,0,0,0,348.778,285.292Z" transform="translate(-329.054 -266.186)" fill="#4d4d4d"/>
      <path id="Path_9" data-name="Path 9" d="M177.651,32.325h-9.522a.442.442,0,0,0-.442.442v1.9a.442.442,0,0,0,.442.442h9.522a.442.442,0,0,0,.442-.442v-1.9A.442.442,0,0,0,177.651,32.325Zm-.442,1.9h-8.638V33.209h8.638v1.021Z" transform="translate(-161.736 -30.421)" fill="#4d4d4d"/>
      <path id="Path_10" data-name="Path 10" d="M257.75,97.986h-8.808a.442.442,0,0,0,0,.884h8.808a.442.442,0,1,0,0-.884Z" transform="translate(-237.788 -92.213)" fill="#4d4d4d"/>
      <path id="Path_11" data-name="Path 11" d="M257.75,131.658h-8.808a.442.442,0,0,0,0,.884h8.808a.442.442,0,1,0,0-.884Z" transform="translate(-237.788 -123.902)" fill="#4d4d4d"/>
      <path id="Path_12" data-name="Path 12" d="M258.191,165.772a.442.442,0,0,0-.442-.442h-8.808a.442.442,0,0,0,0,.884h8.808A.442.442,0,0,0,258.191,165.772Z" transform="translate(-237.788 -155.59)" fill="#4d4d4d"/>
      <path id="Path_13" data-name="Path 13" d="M254.621,199.444a.442.442,0,0,0-.442-.442h-5.237a.442.442,0,0,0,0,.884h5.237A.442.442,0,0,0,254.621,199.444Z" transform="translate(-237.788 -187.278)" fill="#4d4d4d"/>
      <path id="Path_14" data-name="Path 14" d="M120.6,248.5H112.57a.442.442,0,1,0,0,.884H120.6a.442.442,0,1,0,0-.884Z" transform="translate(-109.45 -233.86)" fill="#4d4d4d"/>
      <path id="Path_15" data-name="Path 15" d="M121.046,282.614a.442.442,0,0,0-.442-.442H112.57a.442.442,0,0,0,0,.884H120.6A.442.442,0,0,0,121.046,282.614Z" transform="translate(-109.45 -265.548)" fill="#4d4d4d"/>
      <path id="Path_16" data-name="Path 16" d="M117.475,316.286a.442.442,0,0,0-.442-.442H112.57a.442.442,0,1,0,0,.884h4.463A.442.442,0,0,0,117.475,316.286Z" transform="translate(-109.45 -297.237)" fill="#4d4d4d"/>
    </g>
  </g>
</svg>
