<svg xmlns="http://www.w3.org/2000/svg" width="24.841" height="27.604" viewBox="0 0 24.841 27.604">
  <g id="calendar" transform="translate(-25.627)">
    <path id="Path_1475" data-name="Path 1475" d="M45.327,13.557h1.925a.79.79,0,0,0,.789-.789V10.842a.79.79,0,0,0-.789-.789H45.327a.79.79,0,0,0-.789.789v1.925A.79.79,0,0,0,45.327,13.557Zm.019-2.7h1.887v1.887H45.346Zm-.019,7.818h1.925a.79.79,0,0,0,.789-.789V15.964a.79.79,0,0,0-.789-.789H45.327a.79.79,0,0,0-.789.789v1.925A.79.79,0,0,0,45.327,18.679Zm.019-2.7h1.887V17.87H45.346Zm-5.514-2.426h1.925a.79.79,0,0,0,.789-.789V10.842a.79.79,0,0,0-.789-.789H39.832a.79.79,0,0,0-.789.789v1.925A.79.79,0,0,0,39.832,13.557Zm.019-2.7h1.887v1.887H39.851Zm-9.083,9.195H28.843a.79.79,0,0,0-.789.789v1.925a.79.79,0,0,0,.789.789h1.925a.79.79,0,0,0,.789-.789V20.846A.79.79,0,0,0,30.768,20.056Zm-.019,2.7H28.862V20.865h1.887Zm.019-12.7H28.843a.79.79,0,0,0-.789.789v1.925a.79.79,0,0,0,.789.789h1.925a.79.79,0,0,0,.789-.789V10.842A.79.79,0,0,0,30.768,10.053Zm-.019,2.7H28.862V10.861h1.887Zm9.083,5.811h1.925a.79.79,0,0,0,.789-.789V15.844a.79.79,0,0,0-.789-.789H39.832a.79.79,0,0,0-.789.789v1.925A.79.79,0,0,0,39.832,18.559Zm.019-2.7h1.887V17.75H39.851ZM48.443,1.848H46.715V1.23A1.231,1.231,0,0,0,45.485,0H45.3a1.231,1.231,0,0,0-1.23,1.23v.618H32.025V1.23A1.231,1.231,0,0,0,30.8,0H30.61a1.231,1.231,0,0,0-1.23,1.23v.618H27.651a2.027,2.027,0,0,0-2.024,2.024v21.71A2.024,2.024,0,0,0,27.649,27.6h20.8a2.024,2.024,0,0,0,2.022-2.022V3.872a2.027,2.027,0,0,0-2.025-2.024ZM44.878,1.23A.421.421,0,0,1,45.3.809h.186a.421.421,0,0,1,.421.421v.618H44.878Zm-14.689,0A.421.421,0,0,1,30.61.809H30.8a.421.421,0,0,1,.421.421v.618H30.189V1.23Zm19.47,24.353A1.214,1.214,0,0,1,48.446,26.8h-20.8a1.214,1.214,0,0,1-1.213-1.213v0a2.014,2.014,0,0,0,1.216.407H44.046a2.011,2.011,0,0,0,1.432-.593l4.182-4.182Zm-4.594-.92a1.729,1.729,0,0,0,.049-.408v-2.7a.924.924,0,0,1,.923-.923h2.7a1.73,1.73,0,0,0,.408-.049ZM49.659,7.626H32.43a.4.4,0,1,0,0,.809h17.23V18.9a.924.924,0,0,1-.923.923h-2.7a1.734,1.734,0,0,0-1.732,1.732v2.7a.924.924,0,0,1-.923.923H27.651a1.217,1.217,0,0,1-1.216-1.216V8.435h4.376a.4.4,0,1,0,0-.809H26.436V3.872a1.217,1.217,0,0,1,1.216-1.216H29.38V3.845a1.231,1.231,0,0,0,1.23,1.23.4.4,0,1,0,0-.809.421.421,0,0,1-.421-.421V2.657H44.07V3.845a1.231,1.231,0,0,0,1.23,1.23.4.4,0,1,0,0-.809.421.421,0,0,1-.421-.421V2.657h3.565a1.217,1.217,0,0,1,1.216,1.216ZM30.768,15.054H28.843a.79.79,0,0,0-.789.789v1.925a.79.79,0,0,0,.789.789h1.925a.79.79,0,0,0,.789-.789V15.844A.79.79,0,0,0,30.768,15.054Zm-.019,2.7H28.862V15.863h1.887Zm3.588-4.193h1.925a.79.79,0,0,0,.789-.789V10.842a.79.79,0,0,0-.789-.789H34.337a.79.79,0,0,0-.789.789v1.925A.79.79,0,0,0,34.337,13.557Zm.019-2.7h1.887v1.887H34.357Zm5.494,11.891a.4.4,0,0,0-.808.019.79.79,0,0,0,.789.789h1.925a.79.79,0,0,0,.789-.789V20.846a.79.79,0,0,0-.789-.789H39.832a.79.79,0,0,0-.789.789V21.4a.4.4,0,1,0,.809,0v-.536h1.887v1.887Zm-5.513-4.193h1.925a.79.79,0,0,0,.789-.789V15.844a.79.79,0,0,0-.789-.789H34.337a.79.79,0,0,0-.789.789v1.925A.79.79,0,0,0,34.337,18.559Zm.019-2.7h1.887V17.75H34.357Zm-.019,7.7h1.925a.79.79,0,0,0,.789-.789V20.846a.79.79,0,0,0-.789-.789H34.337a.79.79,0,0,0-.789.789v1.925A.79.79,0,0,0,34.337,23.561Zm.019-2.7h1.887v1.887H34.357Z" transform="translate(0 0)" fill="#4d4d4d"/>
  </g>
</svg>
