<svg xmlns="http://www.w3.org/2000/svg" width="71.474" height="78" viewBox="0 0 71.474 78">
  <g id="Page-1" transform="translate(0.001)">
    <g id="_022---Cross-File" data-name="022---Cross-File" transform="translate(-0.001)">
      <path id="Shape" d="M70.975,6.5a6.505,6.505,0,0,0-6.5-6.5H12.5A6.505,6.505,0,0,0,6,6.5V31.188a1.3,1.3,0,0,0,2.6,0V6.5a3.9,3.9,0,0,1,3.9-3.9h51.98a3.9,3.9,0,0,1,3.9,3.9V57.178h-9.1a6.505,6.505,0,0,0-6.5,6.5v9.1h-5.2a1.3,1.3,0,1,0,0,2.6h6.5A1.3,1.3,0,0,0,55,74.99L70.594,59.4a1.3,1.3,0,0,0,.381-.919Zm-11.7,53.28h7.259L55.381,70.935V63.676A3.9,3.9,0,0,1,59.28,59.777Z" transform="translate(0.499)" fill="#4d4d4d"/>
      <path id="Shape-2" data-name="Shape" d="M15.9,6H13.3a1.3,1.3,0,1,0,0,2.6h2.6a1.3,1.3,0,1,0,0-2.6Z" transform="translate(2.296 1.797)" fill="#4d4d4d"/>
      <path id="Shape-3" data-name="Shape" d="M58.285,6H19.3a1.3,1.3,0,0,0,0,2.6H58.285a1.3,1.3,0,0,0,0-2.6Z" transform="translate(4.093 1.797)" fill="#4d4d4d"/>
      <path id="Shape-4" data-name="Shape" d="M15.9,12H13.3a1.3,1.3,0,1,0,0,2.6h2.6a1.3,1.3,0,1,0,0-2.6Z" transform="translate(2.296 3.594)" fill="#4d4d4d"/>
      <path id="Shape-5" data-name="Shape" d="M19.3,14.6H49.188a1.3,1.3,0,1,0,0-2.6H19.3a1.3,1.3,0,0,0,0,2.6Z" transform="translate(4.093 3.594)" fill="#4d4d4d"/>
      <path id="Shape-6" data-name="Shape" d="M15.9,18H13.3a1.3,1.3,0,1,0,0,2.6h2.6a1.3,1.3,0,1,0,0-2.6Z" transform="translate(2.296 5.391)" fill="#4d4d4d"/>
      <path id="Shape-7" data-name="Shape" d="M19.3,20.6H40.092a1.3,1.3,0,1,0,0-2.6H19.3a1.3,1.3,0,0,0,0,2.6Z" transform="translate(4.093 5.391)" fill="#4d4d4d"/>
      <path id="Shape-8" data-name="Shape" d="M52.6,21.3a1.3,1.3,0,1,0-2.6,0V39.493a1.3,1.3,0,1,0,2.6,0Z" transform="translate(13.677 5.99)" fill="#4d4d4d"/>
      <path id="Shape-9" data-name="Shape" d="M51.3,38A1.3,1.3,0,0,0,50,39.3v2.6a1.3,1.3,0,1,0,2.6,0V39.3A1.3,1.3,0,0,0,51.3,38Z" transform="translate(13.677 11.381)" fill="#4d4d4d"/>
      <path id="Shape-10" data-name="Shape" d="M1,64.28a5.2,5.2,0,0,0,8.8,3.856L22.442,56,35.085,68.135a5.2,5.2,0,1,0,7.2-7.5L29.948,48.792,42.285,36.947A5.2,5.2,0,0,0,38.792,28a5.142,5.142,0,0,0-3.706,1.449L22.442,41.587,9.8,29.449a5.2,5.2,0,1,0-7.2,7.5L14.936,48.792,2.6,60.637A5.154,5.154,0,0,0,1,64.28Zm3.4-1.769L17.712,49.729a1.3,1.3,0,0,0,0-1.874L4.4,35.074A2.6,2.6,0,0,1,6.145,30.6,2.546,2.546,0,0,1,8,31.323l13.545,13a1.3,1.3,0,0,0,1.8,0l13.545-13a2.513,2.513,0,0,1,1.853-.724,2.6,2.6,0,0,1,1.747,4.474L27.172,47.855a1.3,1.3,0,0,0,0,1.874L40.486,62.511a2.6,2.6,0,0,1,.074,3.675,2.663,2.663,0,0,1-3.674.075l-13.545-13a1.3,1.3,0,0,0-1.8,0L8,66.262a2.661,2.661,0,0,1-3.675-.075A2.6,2.6,0,0,1,4.4,62.511Z" transform="translate(-0.999 8.386)" fill="#4d4d4d"/>
    </g>
  </g>
</svg>
