<svg xmlns="http://www.w3.org/2000/svg" width="26.004" height="26" viewBox="0 0 26.004 26">
  <g id="contract" transform="translate(0 -0.039)">
    <path id="Path_17" data-name="Path 17" d="M207.629,96.982a1.3,1.3,0,0,0-2.383-.312l-.217.377a.433.433,0,0,0-.589.156l-1.1,1.876-.377-.217a.433.433,0,1,0-.433.75l.377.217-3.683,6.383-.91,2.431-.433.81a1.3,1.3,0,0,0,.069,1.4l-.975,1.2-.273-.684a.867.867,0,0,0-1.547-.121l-.156.264-.147-1.733a.867.867,0,0,0-1.686-.2l-1.066,3.2a.433.433,0,0,0,.273.546.375.375,0,0,0,.134.034.433.433,0,0,0,.412-.295l1.062-3.2.152,1.759a.867.867,0,0,0,1.608.373l.16-.264.269.68a.867.867,0,0,0,1.482.221l1.01-1.278a1.335,1.335,0,0,0,.342.043,1.3,1.3,0,0,0,1.131-.642l.433-.724,1.651-2.006,3.722-6.461.377.217a.434.434,0,0,1,.16.594l-1.733,3a.43.43,0,1,0,.732.451l1.733-3a1.3,1.3,0,0,0-.477-1.777l-.377-.217,1.083-1.876a.433.433,0,0,0-.156-.589l.217-.377a1.3,1.3,0,0,0,.13-1.005ZM206,97.1a.433.433,0,0,1,.264-.2.455.455,0,0,1,.329.043.434.434,0,0,1,.2.264.455.455,0,0,1-.043.329l-.217.377-.754-.433Zm-5.906,12.1-.217-.126-.641-.373.615-1.647,1.365.789Zm-1.3,1.252a.433.433,0,0,1-.13-.568l.217-.377.754.433-.217.373a.433.433,0,0,1-.624.139Zm2.916-3.319-1.5-.867,3.467-6.006,1.5.867Zm3.9-6.756-1.5-.867.867-1.5,1.5.867Zm0,0" transform="translate(-181.672 -90.781)" fill="#4d4d4d"/>
    <path id="Path_18" data-name="Path 18" d="M70.5,356.7l-1.534,1.53-.919-.919a.434.434,0,1,0-.611.615l.919.919a.874.874,0,0,0,1.226,0l1.53-1.534a.433.433,0,0,0-.611-.611Zm0,0" transform="translate(-63.666 -337.244)" fill="#4d4d4d"/>
    <path id="Path_19" data-name="Path 19" d="M32,315.724a3.683,3.683,0,1,0,7.367,0,.433.433,0,0,0-.867,0,2.817,2.817,0,1,1-1.127-2.253.433.433,0,0,0,.52-.693A3.683,3.683,0,0,0,32,315.724Zm0,0" transform="translate(-30.267 -295.102)" fill="#4d4d4d"/>
    <path id="Path_20" data-name="Path 20" d="M83.7,48.906a.433.433,0,0,0,0-.867H72.433a.433.433,0,0,0-.433.433v1.733a.433.433,0,0,0,.433.433H83.7a.433.433,0,0,0,0-.867H72.867v-.867Zm0,0" transform="translate(-68.1 -45.4)" fill="#4d4d4d"/>
    <path id="Path_21" data-name="Path 21" d="M96.433,112.039a.433.433,0,1,0,0,.867H105.1a.433.433,0,0,0,0-.867Zm0,0" transform="translate(-90.8 -105.933)" fill="#4d4d4d"/>
    <path id="Path_22" data-name="Path 22" d="M137.967,168.039h-9.533a.433.433,0,0,0,0,.867h9.533a.433.433,0,1,0,0-.867Zm0,0" transform="translate(-121.067 -158.9)" fill="#4d4d4d"/>
    <path id="Path_23" data-name="Path 23" d="M65.533,216.472a.433.433,0,0,0-.433-.433H56.433a.433.433,0,0,0,0,.867H65.1A.433.433,0,0,0,65.533,216.472Zm0,0" transform="translate(-52.967 -204.3)" fill="#4d4d4d"/>
    <path id="Path_24" data-name="Path 24" d="M251.467,216.039h-3.033a.433.433,0,0,0,0,.867h3.033a.433.433,0,1,0,0-.867Zm0,0" transform="translate(-234.567 -204.3)" fill="#4d4d4d"/>
    <path id="Path_25" data-name="Path 25" d="M60.767,256.906a.433.433,0,1,0,0-.867H56.433a.433.433,0,1,0,0,.867Zm0,0" transform="translate(-52.967 -242.133)" fill="#4d4d4d"/>
    <path id="Path_26" data-name="Path 26" d="M168.433,256.906h3.033a.433.433,0,1,0,0-.867h-3.033a.433.433,0,1,0,0,.867Zm0,0" transform="translate(-158.9 -242.133)" fill="#4d4d4d"/>
    <path id="Path_27" data-name="Path 27" d="M19.5,19.972a.433.433,0,0,0-.433.433v4.333a.433.433,0,0,1-.433.433H1.3a.433.433,0,0,1-.433-.433V1.339A.433.433,0,0,1,1.3.906H18.633a.433.433,0,0,1,.433.433V9.477a.433.433,0,1,0,.867,0V1.339a1.3,1.3,0,0,0-1.3-1.3H1.3A1.3,1.3,0,0,0,0,1.339v23.4a1.3,1.3,0,0,0,1.3,1.3H18.633a1.3,1.3,0,0,0,1.3-1.3V20.406A.433.433,0,0,0,19.5,19.972Zm0,0" transform="translate(0 0)" fill="#4d4d4d"/>
  </g>
</svg>
