<svg xmlns="http://www.w3.org/2000/svg" width="27.5" height="27.5" viewBox="0 0 27.5 27.5">
  <g id="customer" transform="translate(0.001)">
    <path id="Path_1477" data-name="Path 1477" d="M165.326,8.66A4.33,4.33,0,1,0,161,4.33,4.335,4.335,0,0,0,165.326,8.66Zm0-7.783a3.452,3.452,0,1,1-3.452,3.452A3.456,3.456,0,0,1,165.326.878Z" transform="translate(-151.577)" fill="#4d4d4d"/>
    <path id="Path_1478" data-name="Path 1478" d="M114.452,163.887a6.622,6.622,0,0,1,6.6,6.175H110.91a.439.439,0,1,0,0,.878h10.6a.439.439,0,0,0,.439-.439,7.492,7.492,0,0,0-14.984,0,.439.439,0,0,0,.439.439h1.755a.439.439,0,1,0,0-.878h-1.3A6.623,6.623,0,0,1,114.452,163.887Z" transform="translate(-100.703 -153.471)" fill="#4d4d4d"/>
    <path id="Path_1479" data-name="Path 1479" d="M8.214,332.583l-2.407-.4-1.128-2.165a.439.439,0,0,0-.778,0l-1.128,2.165-2.407.4a.439.439,0,0,0-.241.74l1.71,1.742-.36,2.414a.439.439,0,0,0,.63.457l2.185-1.088,2.185,1.088a.439.439,0,0,0,.63-.458l-.36-2.414,1.71-1.742a.439.439,0,0,0-.24-.74Zm-2.249,2.023a.439.439,0,0,0-.121.372l.268,1.8-1.627-.81a.439.439,0,0,0-.391,0l-1.627.81.268-1.8a.439.439,0,0,0-.121-.372l-1.273-1.3,1.792-.3a.439.439,0,0,0,.317-.23l.84-1.612.84,1.612a.439.439,0,0,0,.317.23l1.792.3-1.273,1.3Z" transform="translate(0 -310.482)" fill="#4d4d4d"/>
    <path id="Path_1480" data-name="Path 1480" d="M169.881,332.583l-2.407-.4-1.128-2.165a.439.439,0,0,0-.778,0l-1.128,2.165-2.407.4a.439.439,0,0,0-.241.74l1.71,1.742-.36,2.414a.439.439,0,0,0,.63.457l2.185-1.088,2.185,1.088a.439.439,0,0,0,.63-.458l-.36-2.414,1.71-1.742a.439.439,0,0,0-.241-.74Zm-2.249,2.023a.439.439,0,0,0-.121.372l.268,1.8-1.627-.81a.439.439,0,0,0-.391,0l-1.627.81.268-1.8a.438.438,0,0,0-.121-.372l-1.273-1.3,1.792-.3a.439.439,0,0,0,.317-.23l.84-1.612.84,1.612a.439.439,0,0,0,.317.23l1.792.3Z" transform="translate(-152.208 -310.482)" fill="#4d4d4d"/>
    <path id="Path_1481" data-name="Path 1481" d="M331.892,332.88a.439.439,0,0,0-.345-.3l-2.407-.4-1.128-2.165a.439.439,0,0,0-.778,0l-1.128,2.165-2.407.4a.439.439,0,0,0-.241.74l1.71,1.742-.36,2.414a.439.439,0,0,0,.63.458l2.185-1.088,2.185,1.088a.439.439,0,0,0,.63-.458l-.36-2.414,1.71-1.742A.439.439,0,0,0,331.892,332.88Zm-2.594,1.726a.439.439,0,0,0-.121.372l.268,1.8-1.627-.81a.439.439,0,0,0-.391,0l-1.627.81.268-1.8a.439.439,0,0,0-.121-.372l-1.273-1.3,1.792-.3a.439.439,0,0,0,.317-.23l.84-1.612.84,1.612a.439.439,0,0,0,.317.23l1.792.3Z" transform="translate(-304.414 -310.482)" fill="#4d4d4d"/>
    <path id="Path_1482" data-name="Path 1482" d="M209.109,85.279a1.99,1.99,0,0,0,1.5-.686.439.439,0,0,0-.662-.576,1.109,1.109,0,0,1-1.678,0,.439.439,0,0,0-.662.576A1.99,1.99,0,0,0,209.109,85.279Z" transform="translate(-195.36 -78.96)" fill="#4d4d4d"/>
  </g>
</svg>
