<svg xmlns="http://www.w3.org/2000/svg" width="19.894" height="24.495" viewBox="0 0 19.894 24.495">
  <g id="delete" transform="translate(0.003 0.002)">
    <path id="Path_1495" data-name="Path 1495" d="M222.972,154.7a.574.574,0,0,0-.574.574v10.842a.574.574,0,1,0,1.147,0V155.277A.574.574,0,0,0,222.972,154.7Zm0,0" transform="translate(-209.643 -145.83)" fill="#cba860"/>
    <path id="Path_1496" data-name="Path 1496" d="M104.972,154.7a.574.574,0,0,0-.574.574v10.842a.574.574,0,1,0,1.147,0V155.277A.574.574,0,0,0,104.972,154.7Zm0,0" transform="translate(-98.412 -145.83)" fill="#cba860"/>
    <path id="Path_1497" data-name="Path 1497" d="M1.626,7.291V21.424a3.165,3.165,0,0,0,.841,2.183,2.825,2.825,0,0,0,2.05.886H15.37a2.824,2.824,0,0,0,2.05-.886,3.165,3.165,0,0,0,.841-2.183V7.291A2.191,2.191,0,0,0,17.7,2.982H14.762V2.264A2.253,2.253,0,0,0,12.491,0H7.4A2.253,2.253,0,0,0,5.125,2.264v.717H2.188a2.191,2.191,0,0,0-.562,4.309ZM15.371,23.346H4.517a1.817,1.817,0,0,1-1.744-1.922V7.341H17.114V21.424a1.817,1.817,0,0,1-1.744,1.922ZM6.272,2.264A1.105,1.105,0,0,1,7.4,1.146h5.094a1.105,1.105,0,0,1,1.124,1.119v.717H6.272ZM2.188,4.129H17.7a1.033,1.033,0,1,1,0,2.065H2.188a1.033,1.033,0,1,1,0-2.065Zm0,0" transform="translate(0 0)" fill="#cba860"/>
    <path id="Path_1498" data-name="Path 1498" d="M163.972,154.7a.574.574,0,0,0-.574.574v10.842a.574.574,0,1,0,1.147,0V155.277A.574.574,0,0,0,163.972,154.7Zm0,0" transform="translate(-154.028 -145.83)" fill="#cba860"/>
  </g>
</svg>
