<svg xmlns="http://www.w3.org/2000/svg" width="49.908" height="61.303" viewBox="0 0 49.908 61.303">
  <g id="doc-file" transform="translate(-44.806)">
    <path id="Path_1503" data-name="Path 1503" d="M79.219,0H54.6a6.534,6.534,0,0,0-6.525,6.525V30.651h-.637a2.629,2.629,0,0,0-2.629,2.629V49.225a2.629,2.629,0,0,0,2.629,2.629h.637v2.924A6.532,6.532,0,0,0,54.6,61.3H88.192a6.531,6.531,0,0,0,6.523-6.525V15.442ZM49.155,35.471a22.521,22.521,0,0,1,3.38-.228,7.12,7.12,0,0,1,4.529,1.18,4.9,4.9,0,0,1,1.87,4.168A5.606,5.606,0,0,1,57.1,45.069a7.939,7.939,0,0,1-5.1,1.427,21.625,21.625,0,0,1-2.839-.164V35.471ZM88.192,57.307H54.6a2.531,2.531,0,0,1-2.527-2.529V51.854H83.388a2.629,2.629,0,0,0,2.629-2.629V33.28a2.629,2.629,0,0,0-2.629-2.629H52.07V6.525A2.53,2.53,0,0,1,54.6,4l23.127-.024v8.548a4.526,4.526,0,0,0,4.525,4.525l8.374-.024.094,37.753A2.529,2.529,0,0,1,88.192,57.307ZM60.072,40.935c0-3.314,2.116-5.791,5.382-5.791,3.4,0,5.25,2.543,5.25,5.595,0,3.625-2.2,5.823-5.431,5.823C61.991,46.562,60.072,44.085,60.072,40.935ZM78.01,44.478a6.266,6.266,0,0,0,2.084-.361l.377,1.952a7.1,7.1,0,0,1-2.837.477c-3.823,0-5.792-2.379-5.792-5.529,0-3.773,2.691-5.873,6.037-5.873a6.542,6.542,0,0,1,2.723.491l-.508,1.986a5.377,5.377,0,0,0-2.1-.411,3.327,3.327,0,0,0-3.528,3.659A3.3,3.3,0,0,0,78.01,44.478Z" fill="#4d4d4d"/>
    <path id="Path_1504" data-name="Path 1504" d="M103.364,295.787a3.171,3.171,0,0,0-3.479-3.511,5.159,5.159,0,0,0-1.132.1v7.234a4.514,4.514,0,0,0,.87.05C101.887,299.674,103.364,298.428,103.364,295.787Z" transform="translate(-47.088 -255.114)" fill="#4d4d4d"/>
    <path id="Path_1505" data-name="Path 1505" d="M190.989,295.7c0-1.984-.952-3.691-2.674-3.691-1.69,0-2.675,1.609-2.675,3.757,0,2.166,1.018,3.691,2.691,3.691C190.022,299.456,190.989,297.849,190.989,295.7Z" transform="translate(-122.927 -254.88)" fill="#4d4d4d"/>
  </g>
</svg>
