<svg xmlns="http://www.w3.org/2000/svg" width="83.061" height="58.104" viewBox="0 0 83.061 58.104">
  <g id="dollar" transform="translate(0 -75.4)">
    <g id="Group_273" data-name="Group 273" transform="translate(0 75.4)">
      <g id="Group_272" data-name="Group 272">
        <path id="Path_1519" data-name="Path 1519" d="M83.044,107.621c-.1-2.3-2.35-4.137-6.7-5.461a47.751,47.751,0,0,0-12.3-1.721V82.781a1.79,1.79,0,0,0-.248-.827c-.463-2-2.7-3.624-6.653-4.816a49.272,49.272,0,0,0-13.7-1.738,48.035,48.035,0,0,0-13.57,1.738c-3,.927-6.587,2.648-6.587,5.61a3.048,3.048,0,0,0,.05.546l.182,7.546a19.8,19.8,0,1,0,8.771,34.82,48.941,48.941,0,0,0,10.592,1.158C43.723,131.4,53.653,133.5,62.9,133.5a47.362,47.362,0,0,0,13.57-1.771c3-.927,6.587-2.664,6.587-5.627V107.936A2,2,0,0,0,83.044,107.621ZM60.587,91.933c0,.215-.794,1.357-4.386,2.449a46.844,46.844,0,0,1-12.743,1.605,47.347,47.347,0,0,1-11.27-1.241c-.05-.017-.083-.017-.132-.033a19.094,19.094,0,0,0-5.18-2.929l-.116-4.667a18.335,18.335,0,0,0,3.575,1.374A48.914,48.914,0,0,0,43.458,90.1a49.356,49.356,0,0,0,13.7-1.738,19.848,19.848,0,0,0,3.591-1.44v4.336A.951.951,0,0,0,60.587,91.933Zm-29.722-11.6a44.7,44.7,0,0,1,12.577-1.605,46.2,46.2,0,0,1,12.743,1.605c3.591,1.092,4.386,2.218,4.386,2.433,0,.232-.811,1.374-4.4,2.449A46.762,46.762,0,0,1,43.442,86.8a45.438,45.438,0,0,1-12.2-1.489c-3.558-1.026-4.551-2.151-4.634-2.515,0-.033-.017-.033-.017-.033C26.611,82.45,27.372,81.391,30.864,80.332Zm.05,42.167a16.495,16.495,0,1,1-11.1-28.68,16.855,16.855,0,0,1,4.882.728,16.563,16.563,0,0,1,11.287,12.428,17.308,17.308,0,0,1,.331,3.326A16.4,16.4,0,0,1,30.914,122.5Zm4.2.364a19.983,19.983,0,0,0,3.177-5.445c1.407.116,2.863.2,4.386.215v.3l.1,5.61A51.7,51.7,0,0,1,35.117,122.863Zm4.419-14.53c.96.066,1.969.1,3,.116l.1,5.858c-1.158-.017-2.3-.066-3.393-.149a20.343,20.343,0,0,0,.381-3.873C39.619,109.64,39.586,108.995,39.536,108.333Zm4.071-3.177h-.165c-1.589,0-3.128-.066-4.551-.165a19.619,19.619,0,0,0-2.962-6.156,59.607,59.607,0,0,0,7.5.48,49.4,49.4,0,0,0,13.719-1.738,20.9,20.9,0,0,0,3.575-1.423v4.336C53.619,100.687,46.321,102.177,43.607,105.156Zm2.184,2.631a.125.125,0,0,1,.017-.066c.149-.447,1.324-1.539,4.75-2.5a45.039,45.039,0,0,1,11.8-1.407h.281a46.38,46.38,0,0,1,12.743,1.572c3.525,1.059,4.352,2.151,4.369,2.4v.017c-.017.248-.844,1.39-4.518,2.482a45.971,45.971,0,0,1-12.577,1.556,46.165,46.165,0,0,1-12.2-1.473c-3.558-1.026-4.534-2.168-4.634-2.515Zm29.722,20.8a44.183,44.183,0,0,1-12.594,1.622,45.033,45.033,0,0,1-12.561-1.572c-3.492-1.076-4.22-2.184-4.22-2.433v-.033l-.083-4.8a21.564,21.564,0,0,0,4.121,1.506A50.931,50.931,0,0,0,62.606,124.3a48.939,48.939,0,0,0,13.67-1.738,21.211,21.211,0,0,0,3.475-1.407v4.965h.017C79.767,126.355,79.006,127.5,75.514,128.589Zm4.27-12.18h-.017c0,.165-.1.364-.1.546,0,.232-.778,1.357-4.352,2.449a45.788,45.788,0,0,1-12.693,1.589c-9.168,0-15.341-2.069-16.632-3.674l-.017-1.39-.066-3.806a20.3,20.3,0,0,0,3.608,1.39,48.914,48.914,0,0,0,13.124,1.605A49.535,49.535,0,0,0,76.16,113.43a18.953,18.953,0,0,0,3.624-1.423Z" transform="translate(0 -75.4)" fill="#4d4d4d"/>
      </g>
    </g>
    <g id="Group_275" data-name="Group 275" transform="translate(13.57 96.732)">
      <g id="Group_274" data-name="Group 274" transform="translate(0 0)">
        <path id="Path_1520" data-name="Path 1520" d="M94.263,220.2a6.256,6.256,0,0,0-6.024-4.551,2.938,2.938,0,1,1,2.946-2.929,1.655,1.655,0,0,0,3.31,0,6.256,6.256,0,0,0-4.551-6.024v-.745a1.655,1.655,0,1,0-3.31,0v.712a6.246,6.246,0,0,0,1.605,12.28,2.937,2.937,0,1,1-2.929,2.946,1.655,1.655,0,1,0-3.31,0,6.287,6.287,0,0,0,4.634,6.04v1.44a1.655,1.655,0,1,0,3.31,0v-1.456A6.243,6.243,0,0,0,94.263,220.2Z" transform="translate(-82 -204.3)" fill="#4d4d4d"/>
      </g>
    </g>
  </g>
</svg>
