<svg xmlns="http://www.w3.org/2000/svg" width="68.815" height="78" viewBox="0 0 68.815 78">
  <g id="rank" transform="translate(-4.855 -2.814)">
    <path id="Path_1508" data-name="Path 1508" d="M56.994,49.13H52.3a1.115,1.115,0,0,1-.853-.4,24.773,24.773,0,0,0-6.579-5.678l-.574-.32C39.489,40.066,34.038,37.04,33.463,30a2.766,2.766,0,0,0-1.886-2.469l-.275-.084a2.676,2.676,0,0,0-3.469,2.141c-.817,5.147-.488,11.857,5.712,14.585A1.115,1.115,0,0,1,33.1,46.3H27.784a1.115,1.115,0,1,1,0-2.23h1.561c-3.442-3.147-4.751-8.267-3.709-14.845a4.906,4.906,0,0,1,6.333-3.919l.272.084a4.986,4.986,0,0,1,3.449,4.417c.481,5.855,4.955,8.342,9.694,10.973l.579.322A26.163,26.163,0,0,1,52.816,46.9h4.178a1.115,1.115,0,0,1,0,2.23Z" transform="translate(2.35 2.561)" fill="#4d4d4d"/>
    <path id="Path_1509" data-name="Path 1509" d="M50.575,72.124H24.315a1.115,1.115,0,0,1,0-2.23h26.26a13.942,13.942,0,0,0,4.205-.649l2.116-.668a1.115,1.115,0,0,1,.669,2.127l-2.119.669a16.168,16.168,0,0,1-4.872.75Z" transform="translate(2.11 7.559)" fill="#4d4d4d"/>
    <path id="Path_1510" data-name="Path 1510" d="M64.791,76.293h-8.7a3.376,3.376,0,0,1-3.372-3.373V45.5a3.376,3.376,0,0,1,3.372-3.373h8.7A3.376,3.376,0,0,1,68.164,45.5V72.92a3.376,3.376,0,0,1-3.373,3.373Zm-8.7-31.935A1.144,1.144,0,0,0,54.952,45.5V72.92a1.144,1.144,0,0,0,1.142,1.143h8.7a1.144,1.144,0,0,0,1.143-1.143V45.5a1.144,1.144,0,0,0-1.143-1.143Z" transform="translate(5.506 4.522)" fill="#4d4d4d"/>
    <path id="Path_1511" data-name="Path 1511" d="M28.8,52.059H16.412a4.966,4.966,0,1,1,0-9.932H28.8a4.966,4.966,0,1,1,0,9.932Zm-12.387-7.7a2.736,2.736,0,1,0,0,5.472H28.8a2.736,2.736,0,1,0,0-5.472Z" transform="translate(0.758 4.522)" fill="#4d4d4d"/>
    <path id="Path_1512" data-name="Path 1512" d="M29.969,58.966H17.984a4.966,4.966,0,1,1,0-9.932H29.969a4.966,4.966,0,1,1,0,9.932Zm-11.984-7.7a2.736,2.736,0,1,0,0,5.472H29.969a2.736,2.736,0,1,0,0-5.472Z" transform="translate(0.939 5.316)" fill="#4d4d4d"/>
    <path id="Path_1513" data-name="Path 1513" d="M30.586,65.873H19.449a4.966,4.966,0,1,1,0-9.932H30.586a4.966,4.966,0,1,1,0,9.932Zm-11.137-7.7a2.736,2.736,0,1,0,0,5.472H30.586a2.736,2.736,0,1,0,0-5.472Z" transform="translate(1.107 6.111)" fill="#4d4d4d"/>
    <path id="Path_1514" data-name="Path 1514" d="M30.911,72.78H21.363a4.966,4.966,0,1,1,0-9.932h9.548a4.966,4.966,0,1,1,0,9.932Zm-9.548-7.7a2.736,2.736,0,1,0,0,5.472h9.548a2.736,2.736,0,1,0,0-5.472Z" transform="translate(1.328 6.905)" fill="#4d4d4d"/>
    <path id="Path_1515" data-name="Path 1515" d="M9.337,25.611a1.115,1.115,0,0,1-1.1-1.3l.943-5.5-4-3.9a1.115,1.115,0,0,1,.618-1.9l5.523-.8,2.47-5a1.16,1.16,0,0,1,2,0l2.471,5,5.523.8a1.115,1.115,0,0,1,.619,1.9l-4,3.9.943,5.5a1.115,1.115,0,0,1-1.62,1.171l-4.941-2.6-4.94,2.6a1.128,1.128,0,0,1-.517.127Zm5.464-5.1a1.115,1.115,0,0,1,.518.127l3.457,1.819-.661-3.851a1.115,1.115,0,0,1,.321-.987l2.8-2.727-3.867-.558a1.115,1.115,0,0,1-.838-.611L14.8,10.215l-1.729,3.5a1.115,1.115,0,0,1-.84.611l-3.866.562,2.8,2.727a1.115,1.115,0,0,1,.32.987l-.666,3.851,3.457-1.819a1.115,1.115,0,0,1,.525-.127Z" transform="translate(0 0.44)" fill="#4d4d4d"/>
    <path id="Path_1516" data-name="Path 1516" d="M61.09,25.612a1.128,1.128,0,0,1-.52-.127l-4.944-2.6-4.94,2.6a1.115,1.115,0,0,1-1.618-1.176l.943-5.5-4-3.895a1.115,1.115,0,0,1,.619-1.9l5.523-.8,2.47-5a1.161,1.161,0,0,1,2,0l2.47,5,5.523.8a1.115,1.115,0,0,1,.619,1.9l-4,3.895.943,5.5a1.115,1.115,0,0,1-1.1,1.3Zm-5.464-5.1a1.115,1.115,0,0,1,.518.127L59.6,22.459l-.66-3.851a1.115,1.115,0,0,1,.32-.987l2.8-2.727-3.868-.558a1.115,1.115,0,0,1-.84-.611l-1.727-3.508L53.9,13.72a1.115,1.115,0,0,1-.84.611l-3.867.558,2.8,2.727a1.115,1.115,0,0,1,.32.987l-.66,3.851,3.457-1.819A1.115,1.115,0,0,1,55.626,20.513Z" transform="translate(4.696 0.439)" fill="#4d4d4d"/>
    <path id="Path_1517" data-name="Path 1517" d="M40.671,21.793a1.124,1.124,0,0,1-.518-.127l-4.94-2.6-4.941,2.6a1.115,1.115,0,0,1-1.618-1.175l.943-5.5-4-3.895a1.115,1.115,0,0,1,.618-1.9l5.524-.8,2.47-5a1.161,1.161,0,0,1,2,0l2.472,5,5.524.8a1.115,1.115,0,0,1,.618,1.9l-4,3.9.943,5.5a1.115,1.115,0,0,1-1.1,1.3Zm-5.464-5.1a1.124,1.124,0,0,1,.518.127l3.457,1.819-.66-3.851a1.115,1.115,0,0,1,.32-.987l2.8-2.727-3.868-.558a1.115,1.115,0,0,1-.84-.611L35.205,6.4,33.484,9.9a1.115,1.115,0,0,1-.84.611l-3.868.558,2.8,2.727a1.115,1.115,0,0,1,.321.987l-.661,3.851,3.457-1.819a1.125,1.125,0,0,1,.522-.123Z" transform="translate(2.348)" fill="#4d4d4d"/>
  </g>
</svg>
