<svg xmlns="http://www.w3.org/2000/svg" width="24.618" height="24.495" viewBox="0 0 24.618 24.495">
  <g id="edit_1_" data-name="edit (1)" transform="translate(0 -0.261)">
    <path id="Path_1483" data-name="Path 1483" d="M22.722,52.158a.613.613,0,0,0-.613.613v5.444a1.841,1.841,0,0,1-1.839,1.839H3.066a1.841,1.841,0,0,1-1.839-1.839V42.238A1.842,1.842,0,0,1,3.066,40.4H8.509a.613.613,0,0,0,0-1.226H3.066A3.069,3.069,0,0,0,0,42.238V58.215a3.069,3.069,0,0,0,3.066,3.066h17.2a3.069,3.069,0,0,0,3.066-3.066V52.771a.613.613,0,0,0-.613-.613Zm0,0" transform="translate(0 -36.526)" fill="#cba860"/>
    <path id="Path_1484" data-name="Path 1484" d="M124.649,1.069a2.759,2.759,0,0,0-3.9,0L109.808,12.007a.613.613,0,0,0-.157.27l-1.438,5.193a.613.613,0,0,0,.754.755l5.193-1.439a.613.613,0,0,0,.27-.157L125.368,5.69a2.762,2.762,0,0,0,0-3.9Zm-13.5,11.337L120.1,3.453l2.887,2.887-8.953,8.953Zm-.577,1.157,2.307,2.307-3.191.884ZM124.5,4.823l-.65.65-2.887-2.887.65-.65a1.533,1.533,0,0,1,2.167,0l.72.719A1.535,1.535,0,0,1,124.5,4.823Zm0,0" transform="translate(-101.557)" fill="#cba860"/>
  </g>
</svg>
