<svg xmlns="http://www.w3.org/2000/svg" width="33.691" height="33.693" viewBox="0 0 33.691 33.693">
  <path id="exit" d="M24.256,25.8v2.632a5.27,5.27,0,0,1-5.265,5.265H5.765A5.27,5.27,0,0,1,.5,28.428V5.265A5.27,5.27,0,0,1,5.765,0H18.992a5.27,5.27,0,0,1,5.265,5.265V7.9a1.316,1.316,0,1,1-2.632,0V5.265a2.635,2.635,0,0,0-2.632-2.632H5.765A2.635,2.635,0,0,0,3.132,5.265V28.428a2.635,2.635,0,0,0,2.632,2.632H18.992a2.635,2.635,0,0,0,2.632-2.632V25.8a1.316,1.316,0,1,1,2.632,0Zm8.973-11.21-2.947-2.947A1.316,1.316,0,1,0,28.421,13.5l2.1,2.1h-15.8a1.316,1.316,0,1,0,0,2.632h15.8l-2.1,2.1a1.316,1.316,0,1,0,1.861,1.861l2.947-2.947a3.294,3.294,0,0,0,0-4.653Zm0,0" transform="translate(-0.5)" fill="#ff4747"/>
</svg>
