<svg xmlns="http://www.w3.org/2000/svg" width="27.5" height="27.518" viewBox="0 0 27.5 27.518">
  <g id="add-friend" transform="translate(-0.167)">
    <path id="Path_1" data-name="Path 1" d="M22.413,10.509a5.254,5.254,0,1,0-5.254-5.254A5.282,5.282,0,0,0,22.413,10.509Zm0-.806a4.425,4.425,0,0,1-2.733-.942A2.8,2.8,0,0,1,21.2,6.734a2.071,2.071,0,0,0,2.422,0,2.8,2.8,0,0,1,1.522,2.026,4.425,4.425,0,0,1-2.733.942ZM21.14,5.047V4.408a1.273,1.273,0,1,1,2.545,0v.639a1.273,1.273,0,1,1-2.545,0ZM22.413.806a4.446,4.446,0,0,1,3.4,7.313,3.624,3.624,0,0,0-1.623-2,2.066,2.066,0,0,0,.3-1.077V4.408a2.078,2.078,0,1,0-4.157,0v.639a2.066,2.066,0,0,0,.3,1.077,3.622,3.622,0,0,0-1.623,2,4.446,4.446,0,0,1,3.4-7.313Zm.815,16.266a.4.4,0,0,0-.124.8,4.446,4.446,0,0,1,2.709,7.26,3.624,3.624,0,0,0-1.623-2,2.066,2.066,0,0,0,.3-1.077v-.639a2.078,2.078,0,1,0-4.157,0v.639a2.066,2.066,0,0,0,.3,1.077,3.623,3.623,0,0,0-1.623,2,4.447,4.447,0,0,1,2.374-7.194.4.4,0,0,0-.185-.784,5.255,5.255,0,1,0,2.026-.078ZM21.14,21.417a1.273,1.273,0,1,1,2.545,0v.639a1.273,1.273,0,1,1-2.545,0Zm1.273,5.3a4.425,4.425,0,0,1-2.733-.942A2.8,2.8,0,0,1,21.2,23.743a2.071,2.071,0,0,0,2.422,0,2.8,2.8,0,0,1,1.522,2.026A4.425,4.425,0,0,1,22.413,26.712ZM5.421,10.509A5.254,5.254,0,0,0,5.421,0,5.207,5.207,0,0,0,2.235,1.076a.4.4,0,1,0,.489.64,4.407,4.407,0,0,1,2.7-.911,4.446,4.446,0,0,1,3.4,7.313,3.623,3.623,0,0,0-1.623-2,2.066,2.066,0,0,0,.3-1.077V4.408a2.078,2.078,0,1,0-4.157,0v.639a2.066,2.066,0,0,0,.3,1.077,3.624,3.624,0,0,0-1.623,2A4.444,4.444,0,0,1,1.584,3,.4.4,0,0,0,.89,2.593a5.256,5.256,0,0,0,4.531,7.916Zm-1.273-6.1a1.273,1.273,0,1,1,2.545,0v.639a1.273,1.273,0,1,1-2.545,0Zm.062,2.327a2.071,2.071,0,0,0,2.422,0A2.8,2.8,0,0,1,8.154,8.761a4.434,4.434,0,0,1-5.466,0A2.8,2.8,0,0,1,4.211,6.734Zm17.8,8.224v.94a.4.4,0,1,0,.806,0v-.967a.78.78,0,0,0-.779-.779H18.464c.012-.133.019-.267.019-.4s-.007-.27-.019-.4h3.573a.78.78,0,0,0,.779-.779V11.6a.4.4,0,1,0-.806,0v.94H18.319a4.564,4.564,0,0,0-8.8,0H5.824v-.967a.4.4,0,1,0-.806,0v.994a.78.78,0,0,0,.779.779H9.37c-.012.133-.019.267-.019.4s.007.27.019.4H5.8a.78.78,0,0,0-.779.779v.994a.4.4,0,1,0,.806,0v-.967H9.515a4.564,4.564,0,0,0,8.8,0ZM13.917,17.51a3.76,3.76,0,1,1,3.76-3.76A3.764,3.764,0,0,1,13.917,17.51Zm1.53-4.163H14.32V12.22a.4.4,0,1,0-.806,0v1.127H12.387a.4.4,0,1,0,0,.806h1.127V15.28a.4.4,0,1,0,.806,0V14.153h1.127a.4.4,0,1,0,0-.806ZM5.421,17.009a5.254,5.254,0,1,0,5.254,5.254,5.26,5.26,0,0,0-5.254-5.254Zm0,9.7a4.425,4.425,0,0,1-2.733-.942,2.8,2.8,0,0,1,1.522-2.026,2.071,2.071,0,0,0,2.422,0A2.8,2.8,0,0,1,8.154,25.77,4.425,4.425,0,0,1,5.421,26.712ZM4.149,22.056v-.639a1.273,1.273,0,1,1,2.545,0v.639a1.273,1.273,0,1,1-2.545,0Zm4.673,3.072a3.623,3.623,0,0,0-1.623-2,2.066,2.066,0,0,0,.3-1.077v-.639a2.078,2.078,0,1,0-4.157,0v.639a2.066,2.066,0,0,0,.3,1.077,3.624,3.624,0,0,0-1.623,2,4.449,4.449,0,1,1,6.8,0Z" transform="translate(0)" fill="#4d4d4d"/>
  </g>
</svg>
