<svg xmlns="http://www.w3.org/2000/svg" width="27.492" height="26.005" viewBox="0 0 27.492 26.005">
  <g id="_x30_8_home" transform="translate(0 -13.845)">
    <path id="Path_28" data-name="Path 28" d="M23.133,27.934v10.3a.812.812,0,0,1-.811.811H21.7a.4.4,0,1,0,0,.806h.625a1.618,1.618,0,0,0,1.616-1.616V28.773l.82.853a.954.954,0,0,0,1.363.014l1.092-1.092a.959.959,0,0,0,.013-1.336l-12.4-12.9a1.505,1.505,0,0,0-2.172,0l-12.4,12.9a.959.959,0,0,0,.013,1.336L1.369,29.64a.954.954,0,0,0,1.363-.014l.82-.853v1.957a.4.4,0,0,0,.806,0v-2.8l9.082-9.454a.424.424,0,0,1,.612,0Zm3.511.044L25.552,29.07a.149.149,0,0,1-.213,0L14.633,17.923h0l0,0a1.229,1.229,0,0,0-1.773,0L3.664,27.493h0L2.152,29.068a.149.149,0,0,1-.213,0L.847,27.978a.15.15,0,0,1,0-.208l12.4-12.9a.7.7,0,0,1,1.01,0l12.4,12.9a.15.15,0,0,1,0,.208Z" transform="translate(0)" fill="#4d4d4d"/>
    <path id="Path_29" data-name="Path 29" d="M82.41,337.956H80.021V333.4a3.676,3.676,0,0,0-7.351,0v4.56h-4.9a.812.812,0,0,1-.811-.811V331.52a.4.4,0,0,0-.806,0v5.625a1.618,1.618,0,0,0,1.616,1.616H82.41a.4.4,0,0,0,0-.806Zm-8.935-4.56a2.87,2.87,0,0,1,5.74,0v4.56h-5.74Z" transform="translate(-62.6 -298.912)" fill="#4d4d4d"/>
  </g>
</svg>
