<svg id="information" xmlns="http://www.w3.org/2000/svg" width="24.495" height="24.495" viewBox="0 0 24.495 24.495">
  <g id="Group_216" data-name="Group 216">
    <g id="Group_215" data-name="Group 215">
      <path id="Path_1499" data-name="Path 1499" d="M12.247,0A12.247,12.247,0,1,0,24.495,12.247,12.24,12.24,0,0,0,12.247,0Zm0,22.581A10.334,10.334,0,1,1,22.581,12.247,10.328,10.328,0,0,1,12.247,22.581Z" fill="#cba860"/>
    </g>
  </g>
  <g id="Group_218" data-name="Group 218" transform="translate(11.29 10.254)">
    <g id="Group_217" data-name="Group 217">
      <path id="Path_1500" data-name="Path 1500" d="M236.957,214.33a.957.957,0,0,0-.957.957v6.162a.957.957,0,1,0,1.914,0v-6.162A.957.957,0,0,0,236.957,214.33Z" transform="translate(-236 -214.33)" fill="#cba860"/>
    </g>
  </g>
  <g id="Group_220" data-name="Group 220" transform="translate(10.956 6.499)">
    <g id="Group_219" data-name="Group 219">
      <circle id="Ellipse_6" data-name="Ellipse 6" cx="1.292" cy="1.292" r="1.292" fill="#cba860"/>
    </g>
  </g>
</svg>
