<svg id="time-is-money" xmlns="http://www.w3.org/2000/svg" width="74.068" height="74.068" viewBox="0 0 74.068 74.068">
  <g id="Group_283" data-name="Group 283">
    <g id="Group_282" data-name="Group 282">
      <path id="Path_1533" data-name="Path 1533" d="M138.575,58.729A24.128,24.128,0,1,0,162.7,82.857,24.163,24.163,0,0,0,138.575,58.729Zm0,46.012a21.884,21.884,0,1,1,21.884-21.884A21.912,21.912,0,0,1,138.575,104.741Z" transform="translate(-97.389 -49.976)" fill="#4d4d4d"/>
      <path id="Path_1534" data-name="Path 1534" d="M232.317,139.574v-8.192a1.122,1.122,0,1,0-2.244,0v8.192a4.34,4.34,0,0,0-3.254,4.152,3.891,3.891,0,0,0,1.234,2.918l-4.6,7.407a1.208,1.208,0,0,0,.337,1.571,1.1,1.1,0,0,0,1.571-.337l4.6-7.407a4.773,4.773,0,0,0,1.234.224,4.333,4.333,0,0,0,1.122-8.529Zm-1.122,6.285a2.131,2.131,0,0,1-2.132-2.132,2.064,2.064,0,0,1,2.132-2.132,2.132,2.132,0,1,1,0,4.265Z" transform="translate(-190.009 -110.844)" fill="#4d4d4d"/>
      <path id="Path_1535" data-name="Path 1535" d="M269.922,88.707a1.06,1.06,0,0,0,1.122-1.122V85.452a1.122,1.122,0,1,0-2.244,0v2.132A1.06,1.06,0,0,0,269.922,88.707Z" transform="translate(-228.736 -71.761)" fill="#4d4d4d"/>
      <path id="Path_1536" data-name="Path 1536" d="M269.922,327.529a1.06,1.06,0,0,0-1.122,1.122v2.132a1.122,1.122,0,1,0,2.244,0v-2.132A1.124,1.124,0,0,0,269.922,327.529Z" transform="translate(-228.736 -278.712)" fill="#4d4d4d"/>
      <path id="Path_1537" data-name="Path 1537" d="M382.494,214.205a1.06,1.06,0,0,0,1.122,1.122h2.132a1.122,1.122,0,0,0,0-2.244h-2.132A1.207,1.207,0,0,0,382.494,214.205Z" transform="translate(-325.484 -181.323)" fill="#4d4d4d"/>
      <path id="Path_1538" data-name="Path 1538" d="M144.425,214.205a1.06,1.06,0,0,0-1.122-1.122H141.17a1.122,1.122,0,1,0,0,2.244H143.3A1.06,1.06,0,0,0,144.425,214.205Z" transform="translate(-119.174 -181.323)" fill="#4d4d4d"/>
      <path id="Path_1539" data-name="Path 1539" d="M367.891,152.551a1.242,1.242,0,0,0,1.571.449l1.8-1.01a1.155,1.155,0,0,0-1.122-2.02l-1.8,1.01A1.055,1.055,0,0,0,367.891,152.551Z" transform="translate(-312.902 -127.525)" fill="#4d4d4d"/>
      <path id="Path_1540" data-name="Path 1540" d="M159.743,270.176l-1.8,1.122a1.155,1.155,0,1,0,1.122,2.02l1.8-1.01a1.242,1.242,0,0,0,.449-1.571A1.094,1.094,0,0,0,159.743,270.176Z" transform="translate(-133.931 -229.775)" fill="#4d4d4d"/>
      <path id="Path_1541" data-name="Path 1541" d="M327.424,313.053a1.155,1.155,0,0,0-2.02,1.122l1.01,1.8a1.155,1.155,0,1,0,2.02-1.122Z" transform="translate(-276.811 -265.919)" fill="#4d4d4d"/>
      <path id="Path_1542" data-name="Path 1542" d="M206.056,105.26a1.155,1.155,0,0,0,2.02-1.122l-1.122-1.908a1.155,1.155,0,1,0-2.02,1.122Z" transform="translate(-174.297 -86.519)" fill="#4d4d4d"/>
      <path id="Path_1543" data-name="Path 1543" d="M329.3,102.98a1.208,1.208,0,0,0-1.571.337l-1.122,1.8a1.136,1.136,0,0,0,1.908,1.234l1.122-1.8A1.1,1.1,0,0,0,329.3,102.98Z" transform="translate(-277.787 -87.493)" fill="#4d4d4d"/>
      <path id="Path_1544" data-name="Path 1544" d="M205.063,311.545a1.208,1.208,0,0,0-1.571.337l-1.122,1.8a1.136,1.136,0,0,0,1.908,1.234l1.122-1.8A1.026,1.026,0,0,0,205.063,311.545Z" transform="translate(-172.069 -264.972)" fill="#4d4d4d"/>
      <path id="Path_1545" data-name="Path 1545" d="M369.876,272.762l-1.8-1.122a1.136,1.136,0,1,0-1.234,1.908l1.8,1.122a1.208,1.208,0,0,0,1.571-.337A1.026,1.026,0,0,0,369.876,272.762Z" transform="translate(-311.744 -231.014)" fill="#4d4d4d"/>
      <path id="Path_1546" data-name="Path 1546" d="M162.065,148.527l-1.8-1.122a1.136,1.136,0,0,0-1.234,1.908l1.8,1.122a1.136,1.136,0,0,0,1.234-1.908Z" transform="translate(-134.907 -125.296)" fill="#4d4d4d"/>
      <path id="Path_1547" data-name="Path 1547" d="M63.631,134.607l-6.621.224a1.125,1.125,0,0,0-1.122,1.122,1.207,1.207,0,0,0,1.122,1.122l3.591-.112a30.475,30.475,0,0,1-19.415,6.958,31.066,31.066,0,0,1-14.477-3.591A13.338,13.338,0,0,0,14.14,127.761a30.759,30.759,0,0,1,1.683-31.647,1.136,1.136,0,1,0-1.908-1.234A33.083,33.083,0,0,0,8.192,113.4a32.266,32.266,0,0,0,3.367,14.477A13.058,13.058,0,0,0,0,141a13.46,13.46,0,0,0,13.355,13.355A13.422,13.422,0,0,0,26.6,142.687a32.267,32.267,0,0,0,14.477,3.367,32.65,32.65,0,0,0,20.649-7.295l-.673,2.918a1.144,1.144,0,0,0,2.245.449l1.347-6.285A1,1,0,0,0,63.631,134.607ZM13.355,152.114a11.11,11.11,0,0,1,0-22.22A11.209,11.209,0,0,1,24.465,141,11.064,11.064,0,0,1,13.355,152.114Z" transform="translate(0 -80.29)" fill="#4d4d4d"/>
      <path id="Path_1548" data-name="Path 1548" d="M140.853,0A32.65,32.65,0,0,0,120.2,7.295l.9-3.367a1.1,1.1,0,0,0-2.132-.561l-1.8,6.958a1.041,1.041,0,0,0,1.122,1.347l7.407-.449a1.014,1.014,0,0,0,1.01-1.234,1.071,1.071,0,0,0-1.234-1.01l-4.152.224a30.71,30.71,0,0,1,44.665,41.3,1.122,1.122,0,0,0,1.8,1.347,32.163,32.163,0,0,0,5.948-18.854A33.024,33.024,0,0,0,140.853,0Z" transform="translate(-99.667)" fill="#4d4d4d"/>
      <path id="Path_1549" data-name="Path 1549" d="M63.527,360.681a6.826,6.826,0,0,0-3.142-1.459l-.112-3.7a6.724,6.724,0,0,1,2.806,1.122l1.234-1.8a7.7,7.7,0,0,0-4.04-1.459v-1.01H59.038v1.01a5.217,5.217,0,0,0-3.03,1.122,3.561,3.561,0,0,0-1.122,2.806A3.22,3.22,0,0,0,55.9,359.9a8.239,8.239,0,0,0,3.142,1.347v3.816a7.929,7.929,0,0,1-3.367-1.683l-1.459,1.683a8.991,8.991,0,0,0,4.713,2.132v1.459H60.16v-1.459a5.281,5.281,0,0,0,3.142-1.122,3.647,3.647,0,0,0,1.234-2.806A3.22,3.22,0,0,0,63.527,360.681Zm-5.948-2.469a1.372,1.372,0,0,1-.337-1.01,1.441,1.441,0,0,1,.449-1.122,2.463,2.463,0,0,1,1.347-.561v3.367A4.449,4.449,0,0,1,57.579,358.213Zm4.265,6.4a2.851,2.851,0,0,1-1.459.561v-3.591a2.889,2.889,0,0,1,1.571.786,1.3,1.3,0,0,1,.449,1.122A2.138,2.138,0,0,1,61.843,364.609Z" transform="translate(-46.132 -299.856)" fill="#4d4d4d"/>
    </g>
  </g>
</svg>
