<svg id="notification_1_" data-name="notification (1)" xmlns="http://www.w3.org/2000/svg" width="41.67" height="50.002" viewBox="0 0 41.67 50.002">
  <g id="Group_25" data-name="Group 25" transform="translate(0 7.292)">
    <g id="Group_24" data-name="Group 24">
      <path id="Path_41" data-name="Path 41" d="M84.179,109.55,80.6,103.587a17.724,17.724,0,0,1-2.523-9.113V89.251a14.584,14.584,0,0,0-29.168,0v5.223a17.724,17.724,0,0,1-2.523,9.113l-3.579,5.963a1.041,1.041,0,0,0,.894,1.577H83.285a1.041,1.041,0,0,0,.894-1.577Zm-38.639-.506,2.631-4.386a19.789,19.789,0,0,0,2.821-10.184V89.251a12.5,12.5,0,0,1,25,0v5.223a19.807,19.807,0,0,0,2.819,10.184l2.633,4.386Z" transform="translate(-42.657 -74.667)" fill="#4d4d4d"/>
    </g>
  </g>
  <g id="Group_27" data-name="Group 27" transform="translate(16.668)">
    <g id="Group_26" data-name="Group 26">
      <path id="Path_42" data-name="Path 42" d="M217.5,0a4.171,4.171,0,0,0-4.167,4.167V8.334a1.042,1.042,0,0,0,2.083,0V4.167a2.083,2.083,0,0,1,4.167,0V8.334a1.042,1.042,0,0,0,2.083,0V4.167A4.171,4.171,0,0,0,217.5,0Z" transform="translate(-213.333)" fill="#4d4d4d"/>
    </g>
  </g>
  <g id="Group_29" data-name="Group 29" transform="translate(15.626 41.67)">
    <g id="Group_28" data-name="Group 28">
      <path id="Path_43" data-name="Path 43" d="M212.383,427.193a1.043,1.043,0,1,0-1.8,1.054,3.125,3.125,0,1,1-5.413,0,1.043,1.043,0,1,0-1.8-1.054,5.211,5.211,0,1,0,9.013,0Z" transform="translate(-202.666 -426.68)" fill="#4d4d4d"/>
    </g>
  </g>
</svg>
