<svg xmlns="http://www.w3.org/2000/svg" width="26.193" height="26" viewBox="0 0 26.193 26">
  <g id="offer" transform="translate(0 -0.346)">
    <path id="Path_33" data-name="Path 33" d="M114.92,11.607v.017a2.827,2.827,0,0,0,1.613,2.7l.011.005a1.9,1.9,0,0,1,.861.828l0,.008a2.954,2.954,0,0,0,2.776,1.549h.018a2.022,2.022,0,0,1,1.2.311,3.03,3.03,0,0,0,3.214,0,2.022,2.022,0,0,1,1.2-.311h.018A2.956,2.956,0,0,0,128.6,15.16l0-.005a1.9,1.9,0,0,1,.863-.83l.009,0a2.827,2.827,0,0,0,1.614-2.7v-.016a1.809,1.809,0,0,1,.315-1.121,2.781,2.781,0,0,0,0-3.145,1.809,1.809,0,0,1-.315-1.121V6.2a2.827,2.827,0,0,0-1.614-2.7l-.01,0a1.9,1.9,0,0,1-.86-.825l-.005-.011a2.956,2.956,0,0,0-2.776-1.549h-.018a2.02,2.02,0,0,1-1.195-.311h0a3.03,3.03,0,0,0-3.214,0,2.023,2.023,0,0,1-1.2.311h-.018a2.954,2.954,0,0,0-2.776,1.549l0,.007a1.9,1.9,0,0,1-.862.829l-.01,0a2.827,2.827,0,0,0-1.614,2.7v.016a1.808,1.808,0,0,1-.315,1.121,2.781,2.781,0,0,0,0,3.146,1.807,1.807,0,0,1,.315,1.121Zm.488-3.713a2.788,2.788,0,0,0,.486-1.73V6.148a1.854,1.854,0,0,1,1.065-1.763l.008,0a2.871,2.871,0,0,0,1.3-1.252l0-.009a1.978,1.978,0,0,1,1.861-1.029h.017a2.988,2.988,0,0,0,1.767-.459,2.05,2.05,0,0,1,2.174,0,3,3,0,0,0,1.767.46h.017a1.974,1.974,0,0,1,1.86,1.027l.006.012a2.871,2.871,0,0,0,1.3,1.25l.008,0a1.854,1.854,0,0,1,1.066,1.764v.017a2.788,2.788,0,0,0,.486,1.729,1.8,1.8,0,0,1,0,2.038,2.791,2.791,0,0,0-.486,1.73v.016a1.855,1.855,0,0,1-1.066,1.764l-.007,0a2.875,2.875,0,0,0-1.3,1.254l0,.007a1.977,1.977,0,0,1-1.861,1.029h-.017a2.993,2.993,0,0,0-1.768.46,2.05,2.05,0,0,1-2.174,0,2.989,2.989,0,0,0-1.6-.464q-.083,0-.165,0h-.017a1.975,1.975,0,0,1-1.861-1.03l-.005-.009a2.868,2.868,0,0,0-1.3-1.25l-.009,0a1.854,1.854,0,0,1-1.066-1.764v-.017a2.79,2.79,0,0,0-.486-1.729,1.8,1.8,0,0,1,0-2.037Zm0,0" transform="translate(-107.161)" fill="#4d4d4d"/>
    <path id="Path_34" data-name="Path 34" d="M204.734,67.087a.488.488,0,0,0,.672-.155l5.777-9.255a.488.488,0,1,0-.827-.516l-5.777,9.255A.488.488,0,0,0,204.734,67.087Zm0,0" transform="translate(-192.037 -53.132)" fill="#4d4d4d"/>
    <path id="Path_35" data-name="Path 35" d="M183.587,65.63a2.477,2.477,0,1,0-2.154-2.456A2.323,2.323,0,0,0,183.587,65.63Zm0-3.936a1.519,1.519,0,1,1-1.178,1.48A1.357,1.357,0,0,1,183.587,61.694Zm0,0" transform="translate(-170.374 -56.693)" fill="#4d4d4d"/>
    <path id="Path_36" data-name="Path 36" d="M267.684,142.972a2.172,2.172,0,1,0,2.154-2.456A2.322,2.322,0,0,0,267.684,142.972Zm3.332,0a1.209,1.209,0,1,1-1.178-1.48A1.357,1.357,0,0,1,271.016,142.972Zm0,0" transform="translate(-251.366 -131.626)" fill="#4d4d4d"/>
    <path id="Path_37" data-name="Path 37" d="M26.13,268.44a2.463,2.463,0,0,0-3.253-.992l-3.82,1.8a3.112,3.112,0,0,0-2.653-1.637l-3.527-.1a3.728,3.728,0,0,1-1.6-.414l-.359-.186a6.33,6.33,0,0,0-5.863.006l.022-.813a.488.488,0,0,0-.474-.5l-3.867-.106a.487.487,0,0,0-.5.474L0,274.466a.488.488,0,0,0,.474.5l3.867.106h.014a.488.488,0,0,0,.487-.474l.011-.406,1-.538a1.724,1.724,0,0,1,1.286-.141l6,1.684.032.008a6.426,6.426,0,0,0,1.319.136,6.507,6.507,0,0,0,2.718-.593.477.477,0,0,0,.06-.033l8.7-5.627a.487.487,0,0,0,.16-.65ZM.989,274.005l.207-7.511,2.892.08-.207,7.511Zm15.784-.128a5.527,5.527,0,0,1-3.381.377l-5.983-1.679a2.7,2.7,0,0,0-2.01.22l-.513.275.138-4.994a5.36,5.36,0,0,1,5.446-.29l.359.186a4.708,4.708,0,0,0,2.025.523l3.527.1a2.139,2.139,0,0,1,2.033,1.7l-5.253-.145a.488.488,0,0,0-.027.975l5.8.16h.014a.488.488,0,0,0,.487-.474,3.112,3.112,0,0,0-.047-.633l3.918-1.851.011-.005a1.49,1.49,0,0,1,1.685.236Zm0,0" transform="translate(0 -248.996)" fill="#4d4d4d"/>
  </g>
</svg>
