<svg xmlns="http://www.w3.org/2000/svg" width="71.754" height="69.458" viewBox="0 0 71.754 69.458">
  <g id="_16-recieve" data-name="16-recieve" transform="translate(-6 -6)">
    <g id="linear_color" data-name="linear color" transform="translate(6 6)">
      <path id="Path_1521" data-name="Path 1521" d="M68.914,298.646c-.372.193-.728.383-1.072.571a6.9,6.9,0,0,0-7.682-.857,37.135,37.135,0,0,0-7.867,5.184l-2.966-.276-5.447-4.357c1.519.416,3.075.819,4.431,1.12a8.894,8.894,0,0,0,1.929.223,6.561,6.561,0,0,0,3.774-1.138c2.952-2.012,3.6-5.979,3.631-6.147a1.435,1.435,0,0,0-1.03-1.6l-18.943-5.31a1.435,1.435,0,0,0-.387-.053H7.435a1.435,1.435,0,1,0,0,2.87H37.087l17.388,4.874a6.036,6.036,0,0,1-2.088,3.005,4.244,4.244,0,0,1-3.455.478c-4.369-.971-11.149-3.1-11.217-3.125a1.438,1.438,0,0,0-1.328,2.489l11.481,9.184a1.435,1.435,0,0,0,.764.308l4.034.375,8.308.773a1.415,1.415,0,0,0,1.249-.527c.019-.024,2.008-2.4,8.011-5.512a3.883,3.883,0,0,1,3.956.116L64.2,311.3l-16.343,1.09-21.5-9.053a1.438,1.438,0,0,0-.557-.112H7.435a1.435,1.435,0,0,0,0,2.87H25.514l21.546,9.072a1.438,1.438,0,0,0,.557.112c.032,0,.064,0,.1,0l17.221-1.148a1.435,1.435,0,0,0,.919-.417l11.481-11.481a1.435,1.435,0,0,0,.068-1.956A7.024,7.024,0,0,0,68.914,298.646Zm-8.372,5.664-4.111-.382a43.933,43.933,0,0,1,5.049-3.021,3.848,3.848,0,0,1,3.605-.074A27.134,27.134,0,0,0,60.542,304.31Z" transform="translate(-6 -245.818)" fill="#4d4d4d"/>
      <path id="Path_1522" data-name="Path 1522" d="M245.212,52.424A15.212,15.212,0,1,0,230,37.212,15.212,15.212,0,0,0,245.212,52.424Zm0-27.554A12.342,12.342,0,1,1,232.87,37.212,12.342,12.342,0,0,1,245.212,24.87Z" transform="translate(-197.854 -19.704)" fill="#4d4d4d"/>
      <path id="Path_1523" data-name="Path 1523" d="M297.455,66.055h2.44a2.011,2.011,0,0,1,2.009,2.009v.144a2.011,2.011,0,0,1-2.009,2.009h-3.618a.79.79,0,0,1-.79-.8l0-.149a1.435,1.435,0,1,0-2.87-.051l0,.149a3.661,3.661,0,0,0,3.66,3.727h1.035v.861a1.435,1.435,0,1,0,2.87,0v-.87a4.885,4.885,0,0,0,4.592-4.87v-.144a4.885,4.885,0,0,0-4.879-4.879h-2.44a2.009,2.009,0,0,1,0-4.018h3.561a.79.79,0,0,1,.789.824,1.435,1.435,0,0,0,2.868.123,3.661,3.661,0,0,0-3.657-3.818h-.834v-.861a1.435,1.435,0,1,0-2.87,0V56.3a4.878,4.878,0,1,0,.144,9.756Z" transform="translate(-251.389 -47.112)" fill="#4d4d4d"/>
      <path id="Path_1524" data-name="Path 1524" d="M424.45,237.309a1.435,1.435,0,1,0-2.029,2.03l4.592,4.592a1.435,1.435,0,0,0,2.029,0l4.592-4.592a1.435,1.435,0,0,0-2.029-2.03l-2.142,2.142v-8.016a1.435,1.435,0,0,0-2.87,0v8.016Z" transform="translate(-362.301 -197.854)" fill="#4d4d4d"/>
      <path id="Path_1525" data-name="Path 1525" d="M455.435,186.018a1.435,1.435,0,0,0,1.435-1.435v-1.148a1.435,1.435,0,1,0-2.87,0v1.148A1.435,1.435,0,0,0,455.435,186.018Z" transform="translate(-389.708 -156.743)" fill="#4d4d4d"/>
      <path id="Path_1526" data-name="Path 1526" d="M123.013,67.93a1.435,1.435,0,0,0,2.029,0l4.592-4.592a1.435,1.435,0,0,0-2.03-2.029l-2.142,2.142V55.435a1.435,1.435,0,1,0-2.87,0v8.016l-2.142-2.142a1.435,1.435,0,1,0-2.029,2.029Z" transform="translate(-101.927 -47.112)" fill="#4d4d4d"/>
      <path id="Path_1527" data-name="Path 1527" d="M151.435,10.018a1.435,1.435,0,0,0,1.435-1.435V7.435a1.435,1.435,0,0,0-2.87,0V8.583A1.435,1.435,0,0,0,151.435,10.018Z" transform="translate(-129.335 -6)" fill="#4d4d4d"/>
      <path id="Path_1528" data-name="Path 1528" d="M27.013,163.93a1.435,1.435,0,0,0,2.029,0l4.592-4.592a1.435,1.435,0,1,0-2.03-2.029l-2.142,2.142v-8.016a1.435,1.435,0,1,0-2.87,0v8.016l-2.142-2.142a1.435,1.435,0,1,0-2.029,2.03Z" transform="translate(-19.704 -129.335)" fill="#4d4d4d"/>
      <path id="Path_1529" data-name="Path 1529" d="M55.435,106.018a1.435,1.435,0,0,0,1.435-1.435v-1.148a1.435,1.435,0,1,0-2.87,0v1.148A1.435,1.435,0,0,0,55.435,106.018Z" transform="translate(-47.112 -88.223)" fill="#4d4d4d"/>
    </g>
  </g>
</svg>
