<svg id="profile" xmlns="http://www.w3.org/2000/svg" width="33.691" height="40.382" viewBox="0 0 33.691 40.382">
  <path id="Path_1473" data-name="Path 1473" d="M96.758,19.452a9.411,9.411,0,0,0,6.877-2.85,9.412,9.412,0,0,0,2.849-6.877,9.412,9.412,0,0,0-2.85-6.877,9.724,9.724,0,0,0-13.754,0,9.411,9.411,0,0,0-2.85,6.877,9.412,9.412,0,0,0,2.85,6.877A9.414,9.414,0,0,0,96.758,19.452Zm-5.2-14.93a7.357,7.357,0,0,1,10.407,0,7.032,7.032,0,0,1,2.156,5.2,7.031,7.031,0,0,1-2.156,5.2,7.357,7.357,0,0,1-10.407,0,7.03,7.03,0,0,1-2.157-5.2,7.031,7.031,0,0,1,2.157-5.2Zm0,0" transform="translate(-80.167 0)" fill="#4d4d4d"/>
  <path id="Path_1474" data-name="Path 1474" d="M33.609,258.862a24.025,24.025,0,0,0-.327-2.552,20.1,20.1,0,0,0-.628-2.565,12.674,12.674,0,0,0-1.055-2.393,9.019,9.019,0,0,0-1.59-2.073,7.011,7.011,0,0,0-2.284-1.435,7.9,7.9,0,0,0-2.916-.528,2.96,2.96,0,0,0-1.581.67c-.474.309-1.028.666-1.647,1.062a9.436,9.436,0,0,1-2.131.939,8.274,8.274,0,0,1-5.212,0,9.408,9.408,0,0,1-2.129-.938c-.613-.392-1.167-.749-1.648-1.062a2.957,2.957,0,0,0-1.58-.67,7.885,7.885,0,0,0-2.916.528,7.006,7.006,0,0,0-2.285,1.435,9.022,9.022,0,0,0-1.59,2.072,12.7,12.7,0,0,0-1.055,2.393,20.152,20.152,0,0,0-.627,2.565,23.86,23.86,0,0,0-.327,2.553c-.054.771-.081,1.574-.081,2.385a6.706,6.706,0,0,0,1.991,5.073,7.169,7.169,0,0,0,5.132,1.872H26.567a7.169,7.169,0,0,0,5.132-1.872,6.7,6.7,0,0,0,1.992-5.073c0-.814-.028-1.616-.082-2.385Zm-3.542,5.744a4.826,4.826,0,0,1-3.5,1.22H7.123a4.827,4.827,0,0,1-3.5-1.219,4.379,4.379,0,0,1-1.257-3.359c0-.757.025-1.5.075-2.221a21.521,21.521,0,0,1,.3-2.3,17.773,17.773,0,0,1,.552-2.262,10.337,10.337,0,0,1,.858-1.946,6.687,6.687,0,0,1,1.169-1.532,4.651,4.651,0,0,1,1.52-.945,5.446,5.446,0,0,1,1.864-.359c.083.044.23.128.47.284.486.317,1.047.679,1.667,1.075a11.725,11.725,0,0,0,2.675,1.2,10.639,10.639,0,0,0,6.668,0,11.738,11.738,0,0,0,2.676-1.2c.634-.405,1.179-.757,1.666-1.074.239-.156.387-.24.47-.284a5.45,5.45,0,0,1,1.864.36,4.658,4.658,0,0,1,1.52.945,6.668,6.668,0,0,1,1.169,1.532,10.3,10.3,0,0,1,.859,1.945,17.731,17.731,0,0,1,.552,2.262,21.7,21.7,0,0,1,.3,2.3h0c.05.714.075,1.461.076,2.22a4.378,4.378,0,0,1-1.257,3.359Zm0,0" transform="translate(0 -227.81)" fill="#4d4d4d"/>
</svg>
