<svg xmlns="http://www.w3.org/2000/svg" width="22.539" height="26" viewBox="0 0 22.539 26">
  <path id="invoice" d="M43.11,17.442A5.687,5.687,0,1,0,51.776,12.6V5.471a.432.432,0,0,0-.173-.346C46.219-.258,46.568.046,46.384.009,46.319,0,47,0,33.678,0a1.735,1.735,0,0,0-1.733,1.733V24.267A1.735,1.735,0,0,0,33.678,26H50.036a1.735,1.735,0,0,0,1.733-1.733.433.433,0,1,0-.867,0,.868.868,0,0,1-.867.867H33.678a.868.868,0,0,1-.867-.867V1.734a.868.868,0,0,1,.867-.867H45.865v3.3A1.735,1.735,0,0,0,47.6,5.9h3.311v6.257a5.659,5.659,0,0,0-2.275-.4V8.667a1.3,1.3,0,0,0-1.3-1.3H36.393a1.3,1.3,0,0,0-1.3,1.3v5.525a1.3,1.3,0,0,0,1.3,1.3h5.687a.433.433,0,1,0,0-.867h-1.95V11.863h3.9a.433.433,0,0,0,.433-.433v-3.2h2.871a.434.434,0,0,1,.433.433v3.181A5.7,5.7,0,0,0,43.11,17.442ZM47.6,5.038a.868.868,0,0,1-.867-.867V1.48L50.29,5.038H47.6Zm-11.205,3.2h2.871V11h-3.3V8.667A.434.434,0,0,1,36.393,8.234Zm2.871,6.391H36.393a.434.434,0,0,1-.433-.433V11.863h3.3ZM43.6,11H40.131V8.234H43.6Zm10.021,6.446A4.821,4.821,0,1,1,48.8,12.621,4.826,4.826,0,0,1,53.618,17.442ZM49.23,18.525V18.35a.431.431,0,0,0-.3-.414l-.517-.162a1.294,1.294,0,0,1-.912-1.241v-.175a1.3,1.3,0,0,1,.867-1.225V14.95a.433.433,0,1,1,.867,0v.183a1.3,1.3,0,0,1,.867,1.225.433.433,0,0,1-.867,0,.433.433,0,1,0-.867,0v.175a.431.431,0,0,0,.3.414l.517.162A1.294,1.294,0,0,1,50.1,18.35v.175A1.3,1.3,0,0,1,49.068,19.8v.137a.433.433,0,1,1-.867,0V19.68a1.3,1.3,0,0,1-.7-1.155.433.433,0,0,1,.867,0,.433.433,0,0,0,.867,0Zm-14.137-.65a.433.433,0,0,1,.433-.433h4.225a.433.433,0,0,1,0,.867H35.527A.433.433,0,0,1,35.093,17.875Zm0,3.25a.433.433,0,0,1,.433-.433h5.308a.433.433,0,1,1,0,.867H35.527A.433.433,0,0,1,35.093,21.125Z" transform="translate(-31.945 0)" fill="#4d4d4d"/>
</svg>
