<svg xmlns="http://www.w3.org/2000/svg" width="25.456" height="25.456" viewBox="0 0 25.456 25.456">
  <g id="loupe" opacity="0.7">
    <g id="Group_19" data-name="Group 19" transform="translate(8.555 1.986)">
      <g id="Group_18" data-name="Group 18">
        <path id="Path_38" data-name="Path 38" d="M184.945,42.26a7.471,7.471,0,0,0-8.979-1.412.5.5,0,1,0,.483.869,6.464,6.464,0,1,1-2.59,2.589.5.5,0,1,0-.871-.479c-.03.055-.085.159-.137.265h0a7.459,7.459,0,1,0,12.094-1.832Z" transform="translate(-172.081 -39.94)" fill="#4d4d4d"/>
      </g>
    </g>
    <g id="Group_21" data-name="Group 21">
      <g id="Group_20" data-name="Group 20">
        <path id="Path_39" data-name="Path 39" d="M22.693,2.763A9.448,9.448,0,0,0,8.36,14.986l-1.55,1.549a1.492,1.492,0,0,0-1.7.292L.729,21.211a2.486,2.486,0,1,0,3.516,3.516l4.384-4.383a1.492,1.492,0,0,0,.292-1.7L10.47,17.1A9.448,9.448,0,0,0,22.693,2.763ZM7.925,19.64,3.542,24.024a1.491,1.491,0,0,1-2.109-2.109L5.816,17.53a.5.5,0,0,1,.7,0l1.407,1.407A.5.5,0,0,1,7.925,19.64Zm.352-1.758-.7-.7L8.99,15.763c.111.123.225.244.342.361s.238.231.361.342ZM21.99,15.421a8.453,8.453,0,1,1,0-11.955A8.44,8.44,0,0,1,21.99,15.421Z" transform="translate(0 0)" fill="#4d4d4d"/>
      </g>
    </g>
    <g id="Group_23" data-name="Group 23" transform="translate(10.592 4.023)">
      <g id="Group_22" data-name="Group 22">
        <path id="Path_40" data-name="Path 40" d="M213.913,81.081l-.012-.013a.5.5,0,0,0-.7.7l.013.012a.5.5,0,0,0,.7-.7Z" transform="translate(-213.052 -80.922)" fill="#4d4d4d"/>
      </g>
    </g>
  </g>
</svg>
