<svg xmlns="http://www.w3.org/2000/svg" width="65.034" height="91.748" viewBox="0 0 65.034 91.748">
  <g id="reading" transform="translate(-72.296)">
    <g id="Group_271" data-name="Group 271" transform="translate(72.296)">
      <path id="Path_1518" data-name="Path 1518" d="M132.9,60.6V51.049l-4.031,1.568-.012-.027-.1-.174a10.375,10.375,0,0,0-6.855-4.588l-9.7-1.765V45.3a14.807,14.807,0,0,0,7.111-9.947,5.922,5.922,0,0,0,4.714-5.79v-14.6a9.269,9.269,0,0,0-6.622-8.893l-.739-.739A18.2,18.2,0,0,0,85.6,18.2V29.561a5.922,5.922,0,0,0,4.714,5.79A14.808,14.808,0,0,0,97.423,45.3v.766l-9.7,1.763a10.378,10.378,0,0,0-6.852,4.583l-.089.216L76.73,51.049V60.6A4.44,4.44,0,0,0,72.3,65.034v5.912A4.44,4.44,0,0,0,76.73,75.38v5.445l28.083,10.923L132.9,80.826V75.38a4.44,4.44,0,0,0,4.434-4.434V65.034A4.44,4.44,0,0,0,132.9,60.6ZM114.973,49.572l6.4,1.163a7.4,7.4,0,0,1,4.666,2.98l-14.3,5.56ZM100.5,46.653a14.725,14.725,0,0,0,8.617,0l-4.309,3.231Zm2.059,5.238-3.017,3.015L97.59,49.037l.942-.17Zm8.531-3.023.942.17-1.957,5.869-3.017-3.015Zm8.5-16.763v-5.09a2.93,2.93,0,0,1,0,5.09Zm-29.561,0a2.93,2.93,0,0,1,0-5.09Zm0-9.935v1.688a5.863,5.863,0,0,0-1.478.612V18.2A15.243,15.243,0,0,1,114.577,7.421l1.3,1.305.4.1a6.317,6.317,0,0,1,4.793,6.138v9.508a5.809,5.809,0,0,0-1.478-.612V22.171h-4.687a12.856,12.856,0,0,1-10.235-5.116l-1.175-1.57-2.937,2.938a12.717,12.717,0,0,1-9.049,3.747Zm2.956,10.346V25.059a15.644,15.644,0,0,0,9.661-4.545l.575-.575a15.833,15.833,0,0,0,11.682,5.188h1.731v7.39a11.824,11.824,0,0,1-23.649,0ZM88.253,50.735l6.4-1.163,3.234,9.7-14.3-5.562A7.4,7.4,0,0,1,88.253,50.735Zm-13,20.211V65.034a1.48,1.48,0,0,1,1.478-1.478,4.434,4.434,0,1,1,0,8.868A1.48,1.48,0,0,1,75.252,70.946ZM103.335,88,79.686,78.805V74.754a7.375,7.375,0,0,0,0-13.527V55.371l23.649,9.2ZM98.947,59.689l5.866-5.868,5.866,5.866-5.866,2.282ZM129.94,78.8,106.291,88V64.567l23.649-9.2v5.856a7.375,7.375,0,0,0,0,13.527Zm4.434-7.857a1.48,1.48,0,0,1-1.478,1.478,4.434,4.434,0,0,1,0-8.868,1.48,1.48,0,0,1,1.478,1.478Z" transform="translate(-72.296 0)" fill="#4d4d4d"/>
    </g>
  </g>
</svg>
