<svg xmlns="http://www.w3.org/2000/svg" width="78" height="78" viewBox="0 0 78 78">
  <g id="law" transform="translate(-16 -16)">
    <path id="Path_1506" data-name="Path 1506" d="M92.7,42H84.12a16.87,16.87,0,0,1-14.912-8.947l-1.591-2.982a14.276,14.276,0,0,0-7.418-6.6V21.2a5.2,5.2,0,0,0-10.4,0v2.275a14.276,14.276,0,0,0-7.418,6.6l-1.59,2.982A16.87,16.87,0,0,1,25.88,42H17.3A1.3,1.3,0,0,0,16,43.3v5.2a1.3,1.3,0,0,0,1.3,1.3h8.544L21.589,61.5H19.9a1.3,1.3,0,0,0-1.3,1.3,10.4,10.4,0,1,0,20.8,0,1.3,1.3,0,0,0-1.3-1.3H36.411L32.156,49.8h3.171A15.6,15.6,0,0,0,45.6,45.939l3.42-2.992a9.077,9.077,0,0,1,.779-.607V76.793L47.7,81H44.6a1.3,1.3,0,0,0-1.04.52L40.05,86.2H34.2a1.3,1.3,0,0,0-1.3,1.3v5.2A1.3,1.3,0,0,0,34.2,94H75.8a1.3,1.3,0,0,0,1.3-1.3V87.5a1.3,1.3,0,0,0-1.3-1.3H69.95l-3.51-4.68A1.3,1.3,0,0,0,65.4,81H62.3l-2.1-4.207V42.339a9.078,9.078,0,0,1,.779.607h0L64.4,45.94A15.6,15.6,0,0,0,74.673,49.8h3.171L73.59,61.5H71.9a1.3,1.3,0,0,0-1.3,1.3,10.4,10.4,0,1,0,20.8,0,1.3,1.3,0,0,0-1.3-1.3H88.411L84.157,49.8H92.7A1.3,1.3,0,0,0,94,48.5V43.3A1.3,1.3,0,0,0,92.7,42ZM52.4,21.2a2.6,2.6,0,0,1,5.2,0v1.539a14.29,14.29,0,0,0-5.2,0ZM29,70.6a7.813,7.813,0,0,1-7.692-6.5H36.692A7.813,7.813,0,0,1,29,70.6Zm4.644-9.1H24.356l4.255-11.7h.779ZM74.5,91.4h-39V88.8h39Zm-7.8-5.2H43.3l1.95-2.6h19.5Zm-8.963-8.519L59.4,81H50.6l1.659-3.319A1.3,1.3,0,0,0,52.4,77.1V41.083a9.029,9.029,0,0,1,5.2,0V77.1a1.3,1.3,0,0,0,.137.581ZM81,70.6a7.813,7.813,0,0,1-7.692-6.5H88.692A7.813,7.813,0,0,1,81,70.6Zm4.644-9.1H76.356l4.255-11.7h.779ZM91.4,47.2H74.673a13,13,0,0,1-8.562-3.218l-3.42-2.993h0a11.68,11.68,0,0,0-15.382,0l-3.421,2.994a13,13,0,0,1-8.56,3.217H18.6V44.6h7.28A19.465,19.465,0,0,0,43.086,34.277l1.59-2.982a11.7,11.7,0,0,1,20.647,0l1.591,2.982A19.465,19.465,0,0,0,84.12,44.6H91.4Z" fill="#4d4d4d"/>
    <path id="Path_1507" data-name="Path 1507" d="M235.9,88a3.9,3.9,0,1,0,3.9,3.9,3.9,3.9,0,0,0-3.9-3.9Zm0,5.2a1.3,1.3,0,1,1,1.3-1.3A1.3,1.3,0,0,1,235.9,93.2Z" transform="translate(-180.9 -60.3)" fill="#4d4d4d"/>
  </g>
</svg>
