<svg xmlns="http://www.w3.org/2000/svg" width="27.5" height="17.461" viewBox="0 0 27.5 17.461">
  <g id="group" transform="translate(0 -92.25)">
    <g id="Group_154" data-name="Group 154" transform="translate(0 92.25)">
      <path id="Path_1476" data-name="Path 1476" d="M23.784,99.933a3.14,3.14,0,1,0-3.6,0,5.44,5.44,0,0,0-1.855,1.088,7.039,7.039,0,0,0-2.546-1.388,3.978,3.978,0,1,0-4.114,0A7.1,7.1,0,0,0,9.147,101a5.484,5.484,0,0,0-1.834-1.066,3.14,3.14,0,1,0-3.6,0A5.511,5.511,0,0,0,0,105.146v.359a.023.023,0,0,0,.022.022H6.676a7.318,7.318,0,0,0-.06.92v.37a2.893,2.893,0,0,0,2.895,2.895h8.434a2.893,2.893,0,0,0,2.895-2.895v-.37a7.318,7.318,0,0,0-.06-.92h6.7a.023.023,0,0,0,.022-.022v-.359A5.532,5.532,0,0,0,23.784,99.933Zm-4.07-2.574a2.269,2.269,0,1,1,2.313,2.269h-.087A2.266,2.266,0,0,1,19.714,97.359ZM10.6,96.228a3.107,3.107,0,1,1,3.287,3.1h-.359A3.111,3.111,0,0,1,10.6,96.228ZM3.227,97.359a2.269,2.269,0,1,1,2.313,2.269H5.452A2.269,2.269,0,0,1,3.227,97.359Zm3.6,7.291H.881A4.649,4.649,0,0,1,5.463,100.5h.065a4.6,4.6,0,0,1,2.965,1.1A7.144,7.144,0,0,0,6.829,104.651Zm13.13,2.166a2.027,2.027,0,0,1-2.024,2.024H9.5a2.027,2.027,0,0,1-2.024-2.024v-.37a6.25,6.25,0,0,1,6.056-6.241c.06.005.125.005.185.005s.125,0,.185-.005a6.25,6.25,0,0,1,6.056,6.241Zm.648-2.166a7.126,7.126,0,0,0-1.649-3.025A4.623,4.623,0,0,1,21.95,100.5h.065a4.649,4.649,0,0,1,4.582,4.152Z" transform="translate(0 -92.25)" fill="#4d4d4d"/>
    </g>
  </g>
</svg>
